<?xml version="1.0" encoding="UTF-8" standalone="no"?>
<!DOCTYPE svg PUBLIC "-//W3C//DTD SVG 1.1//EN" "http://www.w3.org/Graphics/SVG/1.1/DTD/svg11.dtd">
<svg version="1.1" xmlns="http://www.w3.org/2000/svg" xmlns:xlink="http://www.w3.org/1999/xlink" preserveAspectRatio="xMidYMid meet" viewBox="0 0 640 640" width="640" height="640"><defs><path d="M165.2 0C153.59 0 154.88 123.59 154.88 123.59C159.7 120.84 183.78 107.08 227.12 82.31C193.58 27.44 172.94 0 165.2 0Z" id="f12eWVA16l"></path><path d="M474.76 0C486.37 0 485.08 123.59 485.08 123.59C480.26 120.84 456.18 107.08 412.84 82.31C446.38 27.44 467.02 0 474.76 0Z" id="dJpv5Xp3"></path><path d="M581.95 505.84C611.06 396.19 545.41 317.88 526.4 278.8C510.92 246.98 505.76 228.06 505.76 185.92C505.76 41.44 320 41.28 320 41.28C320 41.28 134.24 41.44 134.24 185.92C134.24 228.06 129.08 246.98 113.6 278.8C94.59 317.88 28.94 396.19 58.04 505.84C87.59 617.14 217.66 640 320 640C422.34 640 552.41 617.14 581.95 505.84Z" id="a3wHxA8Gf"></path><path d="M320 102.95C280.1 102.95 247.76 135.29 247.76 175.19C247.76 200.99 247.76 407.39 247.76 433.19C247.76 473.09 280.1 505.43 320 505.43C320 505.43 320 505.43 320 505.43C359.9 505.43 392.24 473.09 392.24 433.19C392.24 407.39 392.24 200.99 392.24 175.19C392.24 135.29 359.9 102.95 320 102.95C320 102.95 320 102.95 320 102.95Z" id="h1iLTkFTT"></path><path d="M320 572.06C297.2 572.06 247.76 588.97 247.76 536.29C247.76 483.6 280.1 500.52 320 500.52C359.9 500.52 392.24 483.6 392.24 536.29C392.24 588.97 342.8 572.06 320 572.06Z" id="b76Qh9dPB"></path><path d="M165.2 206.16C165.2 223.25 155.96 237.12 144.56 237.12C133.16 237.12 123.92 223.25 123.92 206.16C123.92 189.06 133.16 175.2 144.56 175.2C155.96 175.2 165.2 189.06 165.2 206.16Z" id="c8Bnu5yqj"></path><path d="M516.08 206.16C516.08 223.25 506.84 237.12 495.44 237.12C484.04 237.12 474.8 223.25 474.8 206.16C474.8 189.06 484.04 175.2 495.44 175.2C506.84 175.2 516.08 189.06 516.08 206.16Z" id="c5qy22Kgq1"></path><path d="M354.52 250.36C344.71 241.53 332.36 237.11 320 237.11C307.65 237.11 295.29 241.52 285.48 250.36C285.48 250.36 285.47 250.37 285.47 250.37C241.76 289.71 216.8 345.75 216.8 404.55C216.8 415.95 216.8 507.17 216.8 518.57C216.8 535.67 230.66 549.53 247.76 549.53C250.61 549.53 273.43 549.53 276.29 549.53C291.46 549.53 306.43 546 320 539.21C333.58 546 348.54 549.53 363.72 549.53C366.57 549.53 389.39 549.53 392.24 549.53C409.34 549.53 423.2 535.67 423.2 518.57C423.2 507.17 423.2 415.95 423.2 404.55C423.2 345.75 398.24 289.71 354.54 250.37C354.53 250.37 354.52 250.36 354.52 250.36Z" id="c5pyolA9bf"></path><path d="M373.46 301.85C365.45 301.85 357.55 303.71 350.38 307.3C348.73 308.12 335.5 314.74 333.85 315.57C325.13 319.92 314.87 319.92 306.15 315.57C304.5 314.74 291.27 308.12 289.62 307.3C282.46 303.71 274.55 301.85 266.54 301.85C265.39 301.85 256.12 301.85 254.97 301.85C235.41 301.85 217.88 316.5 216.85 336.03C215.76 356.86 232.33 374.09 252.92 374.09C253.44 374.09 257.57 374.09 258.08 374.09C289.04 374.09 289.04 415.37 320 415.37C350.96 415.37 350.96 374.09 381.92 374.09C382.44 374.09 386.57 374.09 387.08 374.09C407.67 374.09 424.24 356.86 423.15 336.03C422.13 316.5 404.59 301.85 385.04 301.85C382.72 301.85 374.62 301.85 373.46 301.85Z" id="b7B1Y4fFJm"></path><path d="M330.32 543.64C330.32 540.1 330.32 511.79 330.32 508.25C330.32 502.55 325.7 497.93 320 497.93C314.3 497.93 309.68 502.55 309.68 508.25C309.68 511.79 309.68 540.1 309.68 543.64C313.19 542.36 316.64 540.89 320 539.21C323.36 540.89 326.81 542.36 330.32 543.64Z" id="ekWhE4TvI"></path><path d="M252.92 322.49C244.37 322.49 237.44 329.42 237.44 337.97C237.44 346.52 244.37 353.45 252.92 353.45C261.47 353.45 268.4 346.52 268.4 337.97C268.4 329.42 261.47 322.49 252.92 322.49Z" id="ayb34azXR"></path><path d="M387.08 322.49C378.53 322.49 371.6 329.42 371.6 337.97C371.6 346.52 378.53 353.45 387.08 353.45C395.63 353.45 402.56 346.52 402.56 337.97C402.56 329.42 395.63 322.49 387.08 322.49Z" id="b4TfGg6Zsz"></path></defs><g><g><g><use xlink:href="#f12eWVA16l" opacity="1" fill="#ffffff" fill-opacity="1"></use><g><use xlink:href="#f12eWVA16l" opacity="1" fill-opacity="0" stroke="#000000" stroke-width="1" stroke-opacity="0"></use></g></g><g><use xlink:href="#dJpv5Xp3" opacity="1" fill="#ffffff" fill-opacity="1"></use><g><use xlink:href="#dJpv5Xp3" opacity="1" fill-opacity="0" stroke="#000000" stroke-width="1" stroke-opacity="0"></use></g></g><g><use xlink:href="#a3wHxA8Gf" opacity="1" fill="#ffffff" fill-opacity="1"></use><g><use xlink:href="#a3wHxA8Gf" opacity="1" fill-opacity="0" stroke="#000000" stroke-width="1" stroke-opacity="0"></use></g></g><g><use xlink:href="#h1iLTkFTT" opacity="1" fill="#b4b4b4" fill-opacity="0.53"></use><g><use xlink:href="#h1iLTkFTT" opacity="1" fill-opacity="0" stroke="#000000" stroke-width="1" stroke-opacity="0"></use></g></g><g><use xlink:href="#b76Qh9dPB" opacity="1" fill="#464655" fill-opacity="0.68"></use><g><use xlink:href="#b76Qh9dPB" opacity="1" fill-opacity="0" stroke="#000000" stroke-width="1" stroke-opacity="0"></use></g></g><g><use xlink:href="#c8Bnu5yqj" opacity="1" fill="#464655" fill-opacity="1"></use><g><use xlink:href="#c8Bnu5yqj" opacity="1" fill-opacity="0" stroke="#000000" stroke-width="1" stroke-opacity="0"></use></g></g><g><use xlink:href="#c5qy22Kgq1" opacity="1" fill="#464655" fill-opacity="1"></use><g><use xlink:href="#c5qy22Kgq1" opacity="1" fill-opacity="0" stroke="#000000" stroke-width="1" stroke-opacity="0"></use></g></g><g><use xlink:href="#c5pyolA9bf" opacity="1" fill="#c0c0c6" fill-opacity="0.53"></use><g><use xlink:href="#c5pyolA9bf" opacity="1" fill-opacity="0" stroke="#000000" stroke-width="1" stroke-opacity="0"></use></g></g><g><use xlink:href="#b7B1Y4fFJm" opacity="1" fill="#9e9ea6" fill-opacity="0.39"></use><g><use xlink:href="#b7B1Y4fFJm" opacity="1" fill-opacity="0" stroke="#000000" stroke-width="1" stroke-opacity="0"></use></g></g><g><use xlink:href="#ekWhE4TvI" opacity="1" fill="#9e9ea6" fill-opacity="1"></use><g><use xlink:href="#ekWhE4TvI" opacity="1" fill-opacity="0" stroke="#000000" stroke-width="1" stroke-opacity="0"></use></g></g><g><use xlink:href="#ayb34azXR" opacity="1" fill="#464655" fill-opacity="1"></use><g><use xlink:href="#ayb34azXR" opacity="1" fill-opacity="0" stroke="#000000" stroke-width="1" stroke-opacity="0"></use></g></g><g><use xlink:href="#b4TfGg6Zsz" opacity="1" fill="#464655" fill-opacity="1"></use><g><use xlink:href="#b4TfGg6Zsz" opacity="1" fill-opacity="0" stroke="#000000" stroke-width="1" stroke-opacity="0"></use></g></g></g></g></svg>